<?xml version="1.0" encoding="UTF-8" standalone="no"?>
<svg
   xmlns:dc="http://purl.org/dc/elements/1.1/"
   xmlns:cc="http://creativecommons.org/ns#"
   xmlns:rdf="http://www.w3.org/1999/02/22-rdf-syntax-ns#"
   xmlns:svg="http://www.w3.org/2000/svg"
   xmlns="http://www.w3.org/2000/svg"
   xmlns:sodipodi="http://sodipodi.sourceforge.net/DTD/sodipodi-0.dtd"
   xmlns:inkscape="http://www.inkscape.org/namespaces/inkscape"
   version="1.0"
   width="1946.000000pt"
   height="1948.000000pt"
   viewBox="0 0 1946.000000 1948.000000"
   preserveAspectRatio="xMidYMid meet"
   id="svg2"
   inkscape:version="0.92.5 (2060ec1f9f, 2020-04-08)"
   sodipodi:docname="bseu_logo (копія).svg">
  <defs
     id="defs108" />
  <sodipodi:namedview
     pagecolor="#ffffff"
     bordercolor="#666666"
     borderopacity="1"
     objecttolerance="10"
     gridtolerance="10"
     guidetolerance="10"
     inkscape:pageopacity="0"
     inkscape:pageshadow="2"
     inkscape:window-width="1856"
     inkscape:window-height="1016"
     id="namedview106"
     showgrid="false"
     inkscape:zoom="0.27413092"
     inkscape:cx="-806.25007"
     inkscape:cy="1301.4711"
     inkscape:window-x="64"
     inkscape:window-y="27"
     inkscape:window-maximized="1"
     inkscape:current-layer="layer1" />
  <metadata
     id="metadata4">
Created by potrace 1.15, written by Peter Selinger 2001-2017
<rdf:RDF>
  <cc:Work
     rdf:about="">
    <dc:format>image/svg+xml</dc:format>
    <dc:type
       rdf:resource="http://purl.org/dc/dcmitype/StillImage" />
  </cc:Work>
</rdf:RDF>
</metadata>
  <g
     inkscape:groupmode="layer"
     id="layer1"
     inkscape:label="Фон" />
  <g
     transform="translate(0.000000,1948.000000) scale(0.100000,-0.100000)"
     fill="#000000"
     stroke="none"
     id="g6"
     style="fill:#121d54;fill-opacity:1">
    <path
       d="M9155 16769 c-167 -7 -373 -24 -540 -44 -48 -6 -233 -35 -320 -51 -45 -8 -96 -17 -115 -20 -103 -16 -365 -80 -575 -141 -104 -30 -194 -56 -200 -57 -5 -2 -23 -8 -39 -15 -16 -6 -36 -13 -45 -15 -9 -2 -23 -6 -31 -9 -8 -3 -80 -30 -160 -60 -676 -252 -1368 -649 -1897 -1090 -51 -42 -94 -77 -96 -77 -2 0 -35 -28 -73 -62 -420 -382 -671 -653 -957 -1033 -66 -88 -124 -161 -128 -163 -5 -2 -9 -8 -9 -12 0 -5 -51 -87 -114 -182 -62 -95 -150 -236 -194 -313 -45 -77 -86 -146 -92 -152 -6 -7 -11 -16 -12 -20 0 -5 -44 -96 -97 -203 -94 -189 -171 -355 -176 -375 -3 -11 -70 -176 -87 -215 -6 -14 -12 -30 -13 -35 -2 -6 -23 -67 -47 -135 -25 -69 -67 -197 -93 -285 -25 -88 -49 -167 -52 -175 -3 -8 -7 -22 -9 -30 -2 -8 -19 -80 -38 -160 -51 -213 -117 -566 -131 -700 -2 -19 -11 -100 -19 -180 -46 -437 -46 -884 -1 -1375 15 -168 74 -529 120 -740 13 -60 26 -121 29 -135 33 -172 189 -652 301 -929 34 -86 81 -195 103 -243 22 -49 38 -88 34 -88 -4 0 -2 -4 3 -8 6 -4 42 -72 82 -152 92 -185 183 -347 294 -528 49 -78 89 -147 89 -151 0 -5 4 -11 8 -13 4 -1 45 -57 92 -123 46 -66 110 -155 142 -197 32 -42 58 -81 58 -87 0 -5 4 -11 9 -13 4 -1 54 -59 110 -128 124 -153 211 -250 357 -399 l112 -115 28 35 c27 32 321 343 529 559 50 52 136 142 191 200 340 358 407 427 611 640 60 63 204 214 318 335 115 121 250 263 300 315 50 52 136 142 191 200 237 249 334 351 419 440 239 249 317 331 510 535 115 121 250 263 300 315 50 52 136 142 191 200 237 249 334 351 419 440 239 249 317 331 510 535 115 121 250 263 300 315 50 52 136 142 191 200 314 330 333 349 616 645 58 61 199 209 313 330 114 121 249 263 300 315 50 52 136 142 191 200 314 330 333 349 616 645 58 61 199 209 313 330 114 121 249 263 300 315 50 52 136 142 191 200 323 339 390 409 616 645 58 61 230 241 382 402 153 160 280 293 284 295 4 2 27 27 51 57 l45 53 -31 27 c-151 127 -271 230 -290 249 -13 12 -26 22 -28 22 -2 0 -59 42 -127 94 -500 380 -1110 715 -1698 933 -80 29 -152 56 -160 60 -8 3 -19 7 -25 8 -16 4 -278 86 -295 92 -8 3 -20 7 -27 9 -6 1 -67 16 -135 34 -128 33 -363 88 -410 95 -15 2 -78 13 -140 24 -117 21 -310 49 -388 57 -429 41 -696 50 -1055 33z m-1944 -1339 c182 -15 363 -44 543 -90 177 -45 418 -129 409 -143 -3 -6 -1 -7 5 -3 12 7 62 -13 62 -26 0 -5 4 -6 10 -3 12 7 312 -144 305 -154 -2 -4 1 -8 8 -8 36 0 346 -221 477 -339 187 -171 416 -425 403 -448 -3 -6 -3 -8 1 -4 27 23 360 -521 340 -554 -3 -4 -1 -8 4 -8 6 0 33 -53 60 -118 91 -215 157 -450 199 -702 46 -281 42 -791 -8 -1010 -6 -25 -12 -54 -14 -65 -2 -11 -5 -29 -8 -40 -3 -11 -8 -39 -12 -62 -4 -24 -11 -43 -16 -43 -6 0 -7 -5 -4 -10 8 -13 -34 -160 -92 -320 -37 -102 -144 -334 -212 -459 -58 -107 -234 -361 -299 -431 -15 -17 -45 -53 -67 -81 -100 -125 -512 -488 -537 -473 -4 3 -8 1 -8 -5 0 -11 -109 -88 -131 -93 -8 -2 -18 -9 -24 -15 -16 -20 -168 -103 -187 -103 -10 0 -18 -5 -18 -11 0 -19 -362 -175 -380 -164 -6 3 -10 2 -10 -4 0 -11 -100 -42 -112 -35 -4 3 -8 1 -8 -4 0 -5 -21 -15 -47 -22 -27 -6 -55 -14 -63 -16 -88 -24 -229 -53 -242 -50 -9 2 -18 0 -20 -5 -2 -5 -31 -10 -65 -13 -34 -2 -66 -7 -72 -10 -25 -16 -558 -34 -590 -20 -9 4 -30 6 -47 5 -48 -3 -289 30 -292 40 -2 5 -8 6 -13 3 -11 -7 -219 36 -219 45 0 3 -15 7 -33 8 -60 3 -468 150 -483 174 -3 5 -13 9 -22 9 -18 0 -233 114 -333 177 -85 54 -324 230 -389 288 -82 73 -269 262 -327 330 -114 135 -216 279 -205 290 4 5 2 5 -4 2 -11 -6 -137 194 -137 218 0 8 -3 12 -7 10 -9 -5 -158 305 -166 345 0 3 -8 22 -18 42 -9 21 -17 48 -19 60 -1 13 -8 29 -14 36 -7 7 -14 22 -14 33 -1 10 -2 25 -3 32 -1 6 -4 14 -8 17 -11 9 -80 281 -74 295 3 8 1 15 -4 17 -6 2 -11 26 -12 53 -2 28 -6 52 -9 55 -4 3 -10 34 -13 69 -3 35 -8 66 -10 70 -8 13 -16 212 -16 389 0 182 17 384 46 523 8 41 16 83 18 94 11 65 19 95 25 95 3 0 7 15 8 33 2 45 92 317 104 317 6 0 8 4 4 9 -7 12 24 91 36 91 5 0 6 6 3 13 -2 7 6 29 20 49 13 20 22 38 20 41 -9 9 80 176 90 170 6 -4 8 -3 4 2 -20 21 197 350 337 513 51 59 132 148 181 198 79 80 119 117 254 231 187 158 552 371 795 463 33 13 74 29 90 36 57 23 167 54 176 48 5 -3 9 -1 9 5 0 9 221 66 290 75 19 2 46 7 60 10 25 6 44 9 185 26 166 20 371 24 556 10z"
       id="path32"
       style="fill:#121d54;fill-opacity:1" />
    <path
       d="M6750 14404 c-678 -60 -1167 -321 -1473 -786 -54 -82 -117 -194 -117 -208 0 -7 51 -28 320 -132 282 -109 403 -156 560 -216 85 -33 172 -67 192 -76 l37 -16 41 87 c140 300 370 427 739 410 151 -7 225 -24 334 -76 206 -98 341 -294 406 -586 l19 -85 -599 0 -599 0 0 -375 0 -375 596 0 597 0 -7 -50 c-10 -76 -51 -210 -90 -293 -109 -232 -305 -365 -585 -398 -314 -36 -586 66 -735 276 -51 70 -114 199 -137 278 -7 26 -17 47 -21 47 -10 0 -185 -46 -513 -135 -148 -40 -351 -94 -450 -121 -99 -26 -184 -51 -189 -55 -5 -4 10 -53 33 -111 156 -388 460 -731 796 -896 211 -104 399 -160 660 -197 436 -61 944 -31 1255 75 230 78 362 144 525 264 495 361 741 983 718 1811 -20 739 -275 1278 -755 1598 -139 92 -195 122 -323 174 -173 71 -357 120 -565 149 -101 15 -568 27 -670 18z"
       id="path34"
       style="fill:#121d54;fill-opacity:1" />
    <path
       d="M14439 14358 c-107 -112 -241 -252 -299 -313 -58 -60 -153 -159 -210 -220 -58 -60 -147 -155 -200 -210 -52 -55 -140 -147 -195 -205 -179 -187 -289 -303 -396 -415 -58 -60 -152 -159 -210 -220 -57 -60 -151 -159 -209 -220 -58 -60 -153 -159 -210 -220 -58 -60 -147 -155 -200 -210 -52 -55 -140 -147 -195 -205 -179 -187 -289 -303 -396 -415 -58 -60 -152 -159 -210 -220 -57 -60 -151 -159 -209 -220 -58 -60 -153 -159 -210 -220 -58 -60 -147 -155 -200 -210 -52 -55 -140 -147 -195 -205 -179 -187 -289 -303 -396 -415 -58 -60 -152 -159 -210 -220 -57 -60 -151 -159 -209 -220 -58 -60 -153 -159 -210 -220 -58 -60 -147 -155 -200 -210 -52 -55 -140 -147 -195 -205 -55 -58 -143 -150 -196 -205 -52 -55 -142 -149 -200 -210 -171 -180 -327 -344 -429 -450 -53 -55 -143 -149 -200 -210 -58 -60 -145 -153 -195 -205 -50 -52 -136 -142 -191 -200 -55 -58 -147 -154 -205 -215 -57 -60 -149 -157 -204 -215 -182 -190 -328 -343 -425 -445 -53 -55 -143 -149 -200 -210 -58 -60 -145 -153 -195 -205 -50 -52 -136 -142 -191 -200 -55 -58 -147 -154 -205 -215 -57 -60 -149 -157 -204 -215 -201 -211 -332 -347 -425 -445 -53 -55 -122 -127 -153 -161 l-56 -60 102 -100 c674 -663 1571 -1208 2502 -1523 568 -191 1135 -301 1770 -341 196 -12 728 -4 925 15 855 80 1592 281 2327 635 1124 542 2058 1365 2741 2417 582 896 938 1920 1042 2998 33 340 35 871 5 1200 -129 1431 -686 2740 -1629 3825 -106 123 -457 482 -517 531 l-37 29 -193 -202z m-1439 -3678 c830 -71 1582 -460 2114 -1095 770 -918 940 -2183 439 -3280 -247 -539 -663 -1007 -1188 -1336 -180 -113 -487 -252 -700 -318 -1328 -408 -2744 106 -3508 1275 -252 385 -406 806 -474 1297 -24 174 -24 584 1 762 51 370 138 658 296 980 333 678 900 1207 1601 1495 441 181 949 260 1419 220z"
       id="path44"
       style="fill:#121d54;fill-opacity:1" />
    <path
       d="M11083 9043 c8 -16 91 -194 185 -398 470 -1023 574 -1248 615 -1335 24 -52 59 -126 77 -165 18 -38 49 -106 70 -150 274 -586 371 -807 364 -827 -29 -96 -115 -192 -212 -236 -138 -64 -258 -72 -577 -37 -71 8 -142 15 -157 15 l-28 0 0 -414 0 -413 48 -6 c588 -72 765 -79 1022 -41 344 49 595 214 747 489 87 157 190 384 363 795 28 69 86 204 127 300 139 328 267 630 343 810 28 69 83 197 120 285 68 159 146 344 240 565 59 139 172 405 236 555 48 112 94 226 94 232 0 2 -283 3 -628 3 l-628 0 -46 -137 c-25 -76 -144 -435 -263 -798 -119 -363 -219 -667 -222 -675 -4 -13 -159 437 -465 1355 l-83 250 -678 3 -678 2 14 -27z"
       id="path46"
       style="fill:#121d54;fill-opacity:1" />
  </g>
</svg>
