<svg width="76" height="76" viewBox="0 0 76 76" fill="none" xmlns="http://www.w3.org/2000/svg">
<path d="M75.172 75.1707H0V-2.24026e-06H75.172V75.1707Z" fill="white"/>
<path d="M4.24854 4.24803V6.7027C4.73254 5.84403 5.27654 5.0227 5.87654 4.24803H4.24854Z" fill="#F47216"/>
<path d="M40.0715 56.9655C49.6835 55.2468 49.8742 52.2588 49.8742 52.2588C50.0915 52.7321 50.2475 53.3801 50.3649 54.0601C49.4462 48.6428 46.4555 43.6001 41.6529 40.2095H40.0715V56.9655Z" fill="#DA1259"/>
<path d="M50.6497 56.916C50.623 56.3254 50.563 55.4067 50.431 54.4894C50.4084 54.3454 50.3884 54.2014 50.3644 54.06C50.247 53.38 50.091 52.732 49.875 52.2587C49.875 52.2587 49.683 55.2467 40.071 56.9654V70.9267H45.8897C46.4004 70.368 46.8724 69.7947 47.2417 69.2227C49.5804 65.6147 50.691 61.564 50.671 57.5587C50.671 57.344 50.6564 57.1294 50.6497 56.916Z" fill="#9D1661"/>
<path d="M62.7199 40.2089C57.2413 50.2289 59.7839 52.3996 59.7839 52.3996C59.2893 52.2929 58.7013 52.0423 58.1133 51.7409C61.9466 53.7076 66.3613 54.5143 70.7866 53.8943V40.2089H62.7199Z" fill="#DA1259"/>
<path d="M62.7199 40.209H47.8625C49.3452 44.1943 51.8905 47.4783 55.0639 49.8477C55.2385 49.9797 55.4212 50.0983 55.5999 50.2237C56.0692 50.545 56.7972 51.0197 57.5732 51.453C57.7492 51.5503 57.9305 51.6463 58.1132 51.741C58.7012 52.0423 59.2892 52.293 59.7839 52.3997C59.7839 52.3997 57.2412 50.229 62.7199 40.209Z" fill="#9D1661"/>
<path d="M55.0246 64.3092C55.3446 63.8612 55.8633 63.3759 56.4273 62.9146C53.8219 65.0466 51.7273 67.7826 50.3606 70.9266H64.3966C57.8219 62.9132 55.0246 64.3092 55.0246 64.3092Z" fill="#DA1259"/>
<path d="M59.2198 60.9642C59.0411 61.0682 58.8691 61.1828 58.6945 61.2908C58.1651 61.6295 57.3131 62.2002 56.5278 62.8295C56.4945 62.8575 56.4598 62.8855 56.4265 62.9135C55.8625 63.3762 55.3451 63.8602 55.0251 64.3095C55.0251 64.3095 57.8211 62.9135 64.3971 70.9268H70.7865V58.1162C66.5838 57.9442 62.6105 58.9975 59.2198 60.9642Z" fill="#9D1661"/>
<path d="M26.7252 55.9089C30.2212 52.5809 32.7705 47.7062 34.8385 40.2089H26.2625C24.2092 44.0235 21.8145 47.0902 19.1505 49.6169C19.0852 49.6809 19.0158 49.7435 18.9492 49.8062C18.6172 50.1169 18.2785 50.4195 17.9398 50.7142C17.8492 50.7929 17.7598 50.8729 17.6692 50.9489C17.2465 51.3062 16.8158 51.6529 16.3812 51.9889C16.3105 52.0422 16.2412 52.0955 16.1705 52.1489C15.7425 52.4755 15.3078 52.7915 14.8692 53.0955C14.8452 53.1129 14.8185 53.1315 14.7932 53.1502C13.7238 53.8862 12.6225 54.5569 11.4958 55.1889C11.6718 55.2742 11.8505 55.3569 12.0278 55.4449C11.9398 55.4902 11.8545 55.5342 11.7665 55.5795L11.7532 55.5875C11.6598 55.6355 11.5638 55.6862 11.4718 55.7329C11.4572 55.7409 11.4398 55.7489 11.4238 55.7569C12.5692 56.3822 13.6905 57.0462 14.7745 57.7822C14.8132 57.8089 14.8545 57.8369 14.8945 57.8635C15.3398 58.1675 15.7772 58.4822 16.2118 58.8089C16.2532 58.8409 16.3012 58.8729 16.3452 58.9062C16.7718 59.2289 17.1892 59.5649 17.6052 59.9102C17.7158 60.0022 17.8252 60.0955 17.9345 60.1902C18.2998 60.4982 18.6558 60.8142 19.0105 61.1422C19.0598 61.1875 19.1065 61.2275 19.1572 61.2729C21.8932 63.8395 24.3478 66.9835 26.4385 70.9262H34.9558C32.8452 63.6769 30.2065 59.1542 26.7252 55.9089Z" fill="#68BCE3"/>
<path d="M19.1509 49.6165C21.8149 47.0898 24.2096 44.0245 26.2629 40.2085H26.2336H4.23889V45.7672C7.00689 45.9698 10.3216 46.4365 13.4722 47.3258C15.5056 47.9005 17.4629 48.6472 19.1509 49.6165Z" fill="#B3E6E4"/>
<path d="M11.496 55.1895C12.6227 54.5575 13.724 53.8868 14.7933 53.1495C14.8187 53.1321 14.8453 53.1121 14.8693 53.0948C15.308 52.7908 15.7427 52.4748 16.1707 52.1495C16.2413 52.0961 16.3107 52.0428 16.3813 51.9881C16.816 51.6535 17.2453 51.3055 17.6693 50.9481C17.76 50.8721 17.8493 50.7921 17.94 50.7135C18.2787 50.4201 18.6173 50.1161 18.9493 49.8068C19.016 49.7441 19.084 49.6801 19.1507 49.6161C17.464 48.6481 15.5053 47.9001 13.472 47.3255C10.3213 46.4361 7.00666 45.9695 4.23999 45.7668V52.2641C6.09999 52.9028 7.90532 53.5788 9.66266 54.3455C10.2787 54.6161 10.8907 54.8975 11.496 55.1895Z" fill="#008EC7"/>
<path d="M12.9451 63.7805C9.95441 64.6112 6.85041 65.0752 4.23975 65.2992V70.9258H26.4104H26.4384C24.3477 66.9832 21.8931 63.8392 19.1571 61.2738C17.3197 62.3472 15.1651 63.1645 12.9451 63.7805Z" fill="#B3E6E4"/>
<path d="M19.1573 61.2736C19.1067 61.2282 19.06 61.1882 19.0107 61.1416C18.656 60.8149 18.2987 60.4976 17.9347 60.1909C17.8253 60.0962 17.716 60.0016 17.6053 59.9109C17.188 59.5642 16.772 59.2282 16.3453 58.9069C16.3 58.8722 16.2533 58.8416 16.212 58.8082C15.7773 58.4829 15.34 58.1669 14.8947 57.8642C14.8533 57.8362 14.8133 57.8096 14.7747 57.7816C13.6893 57.0456 12.5693 56.3829 11.424 55.7576C11.14 55.9016 10.8587 56.0469 10.5733 56.1869C10.2173 56.3616 9.85466 56.5309 9.49599 56.6989C9.29466 56.7936 9.09599 56.8896 8.89466 56.9829C8.88399 56.9869 8.86932 56.9922 8.85732 56.9976C8.28399 57.2576 7.70399 57.5109 7.11866 57.7589C6.15466 58.1549 5.19332 58.5269 4.23999 58.8896V65.3002C6.85066 65.0762 9.95466 64.6109 12.9453 63.7802C15.1653 63.1642 17.32 62.3482 19.1573 61.2736Z" fill="#008EC7"/>
<path d="M8.85792 56.9974C8.86992 56.9921 8.88459 56.9867 8.89392 56.9827C9.09659 56.8894 9.29392 56.7934 9.49659 56.6987C9.85526 56.5307 10.2179 56.3614 10.5726 56.1881C10.8593 56.0467 11.1406 55.9014 11.4246 55.7574L11.4713 55.7334C11.5633 55.6867 11.6606 55.6361 11.7539 55.5881L11.7673 55.5814C11.8539 55.5347 11.9406 55.4907 12.0273 55.4454C11.8499 55.3574 11.6713 55.2747 11.4966 55.1894C10.8899 54.8974 10.2779 54.6161 9.66326 54.3454C7.90459 53.5801 6.10059 52.9027 4.23926 52.2641V52.3681V58.6187V58.8894C5.19392 58.5267 6.15526 58.1547 7.11792 57.7587C7.70459 57.5107 8.28326 57.2574 8.85792 56.9974Z" fill="#68BCE3"/>
<path d="M4.24854 26.8237V34.965H12.7592C9.18853 33.1544 6.21653 30.3197 4.24854 26.8237Z" fill="#F68712"/>
<path d="M34.9647 34.9648V32.1688C33.7087 33.2688 32.3087 34.2022 30.8074 34.9648H34.9647Z" fill="#F68712"/>
<path d="M12.759 34.9648H30.807C32.3083 34.2022 33.7083 33.2688 34.9643 32.1688V27.0728C34.871 27.1422 34.7736 27.2088 34.675 27.2728C34.5416 27.3835 34.415 27.5008 34.2763 27.6088C26.791 33.2888 16.1016 31.6768 10.4003 24.0128C5.94829 18.0248 5.86962 10.1315 9.60429 4.24751H5.87629C5.27762 5.02351 4.73229 5.84484 4.24829 6.70218V26.8235C6.21629 30.3195 9.18829 33.1542 12.759 34.9648Z" fill="#FAB20B"/>
<path d="M10.4008 24.0124C16.1008 31.6778 26.7914 33.2898 34.2754 27.6084C34.4154 27.5004 34.5408 27.3844 34.6754 27.2738C34.7728 27.1951 34.8701 27.1151 34.9648 27.0338V26.9044C28.8874 30.3271 21.0541 28.7351 16.7021 22.8831C16.6821 22.8564 16.6661 22.8271 16.6448 22.7991C16.5101 22.6658 16.3821 22.5218 16.2514 22.3831C16.1501 22.2324 16.0688 22.0764 15.9768 21.9244C15.9208 21.8658 15.8621 21.8071 15.8061 21.7458C11.4381 16.7338 11.2208 9.48444 14.8594 4.24844H9.60344C5.87011 10.1324 5.94744 18.0258 10.4008 24.0124Z" fill="#F47216"/>
<path d="M34.9647 7.52539V4.24806H30.118C32.0007 4.91606 33.6594 6.05739 34.9647 7.52539Z" fill="#F68712"/>
<path d="M15.8058 21.7455C15.8618 21.8069 15.9204 21.8642 15.9764 21.9229C14.5124 19.5042 13.8004 16.8015 13.8231 14.1282C13.8271 10.5055 15.1791 6.94018 17.7724 4.24818H14.8591C11.2218 9.48418 11.4391 16.7335 15.8058 21.7455Z" fill="#F68712"/>
<path d="M14.4451 15.0892C14.7691 11.4625 16.8731 8.19454 20.2597 6.7092C21.5277 6.15454 22.8517 5.90387 24.1637 5.9212C28.0837 5.9652 31.8837 8.43854 33.6251 12.4945C34.2064 13.8545 34.5037 15.2599 34.5397 16.6385C34.6624 20.7705 32.4704 24.6705 28.6784 26.3345C28.5517 26.3865 28.4251 26.4279 28.3011 26.4772C28.1544 26.5319 28.0104 26.5945 27.8651 26.6439C27.9117 26.6145 27.9557 26.5812 28.0037 26.5545C27.0624 26.9572 26.0517 27.2279 24.9891 27.3132C25.3264 27.3492 25.6664 27.3732 26.0104 27.3812C29.5611 27.4385 32.7624 25.8999 34.9651 23.4252V7.5252C33.6597 6.05854 32.0011 4.9172 30.1184 4.24787H22.3157C17.8824 5.83454 14.6477 10.0452 14.4451 15.0892Z" fill="#F47216"/>
<path d="M15.9765 21.9232C16.0685 22.0765 16.1512 22.2325 16.2512 22.3832C16.3832 22.5219 16.5098 22.6659 16.6445 22.7992C16.6498 22.8045 16.6525 22.8085 16.6565 22.8099C16.2658 22.2592 15.9378 21.6805 15.6512 21.0845C15.4645 20.6965 15.3032 20.3045 15.1605 19.9032C14.7245 18.7152 14.4792 17.4779 14.4312 16.2312C14.4245 16.0379 14.4365 15.8459 14.4378 15.6539C14.4352 15.5605 14.4272 15.4699 14.4312 15.3765V15.3405C14.4338 15.2739 14.4418 15.2099 14.4432 15.1445C14.4445 15.1312 14.4432 15.1179 14.4445 15.1072C14.4445 15.1005 14.4458 15.0952 14.4458 15.0899C14.6485 10.0445 17.8832 5.83521 22.3165 4.24854H17.7725C15.2032 6.94321 13.8525 10.5059 13.8232 14.1285C13.8005 16.8005 14.5125 19.5045 15.9765 21.9232Z" fill="#FAB20B"/>
<path d="M28.3005 26.4779C28.4259 26.4286 28.5512 26.3872 28.6779 26.3339C32.4699 24.6699 34.6619 20.7712 34.5405 16.6392C34.4992 15.2646 34.2032 13.8646 33.6232 12.5126C31.8805 8.45258 28.0832 5.97525 24.1632 5.92192C22.8512 5.90325 21.5272 6.15392 20.2605 6.70858C16.8739 8.19392 14.7699 11.4632 14.4445 15.0886C14.4445 15.0952 14.4432 15.1006 14.4432 15.1072C14.4419 15.1179 14.4432 15.1312 14.4419 15.1446C14.4352 15.2872 14.4405 15.4312 14.4392 15.5726C14.4379 15.5992 14.4379 15.6259 14.4379 15.6539C14.4365 15.8459 14.4245 16.0379 14.4312 16.2312C14.4792 17.4779 14.7232 18.7166 15.1605 19.9032C15.2939 20.2606 15.4392 20.6166 15.6072 20.9632C14.4485 16.7819 16.3085 12.3633 20.1365 10.6899C24.3405 8.84725 29.3179 11.0099 31.2512 15.5139C33.0405 19.6966 31.5779 24.4219 28.0032 26.5539C27.9552 26.5819 27.9112 26.6139 27.8659 26.6432C28.0099 26.5939 28.1552 26.5326 28.3005 26.4779Z" fill="#FAB20B"/>
<path d="M40.0613 15.1267H70.7773V4.24805H40.0613V15.1267Z" fill="#40B93C"/>
<path d="M40.0613 30.7627H70.7773V24.5014H40.0613V30.7627Z" fill="#40B93C"/>
<path d="M40.061 30.8295V34.9642H70.777V30.8295V30.7628H40.061V30.8295Z" fill="#9AD420"/>
<path d="M40.0613 24.4893H70.7773V21.6747H40.0613V24.4893Z" fill="#9AD420"/>
<path d="M40.061 15.3782V18.1982H70.777V15.3782V15.1276H40.061V15.3782Z" fill="#9AD420"/>
</svg>
